<?xml version="1.0" encoding="UTF-8"?>
<svg version="1.1" xmlns="http://www.w3.org/2000/svg" width="484" height="556">
<path d="M0 0 C0.98613875 -0.00155999 1.97227751 -0.00311998 2.98829925 -0.00472724 C6.27923271 -0.00870245 9.57011969 -0.00556086 12.86105347 -0.00241089 C15.22732063 -0.00376666 17.59358758 -0.00554759 19.95985413 -0.00772095 C26.38474879 -0.01227977 32.80962739 -0.01051062 39.23452234 -0.00734186 C43.26106356 -0.00555971 47.28760273 -0.00590112 51.31414413 -0.00683212 C52.31947098 -0.00706197 52.31947098 -0.00706197 53.34510746 -0.00729647 C54.70726825 -0.00761624 56.06942904 -0.00794045 57.43158983 -0.00826906 C70.20516231 -0.01112003 82.97872763 -0.00784533 95.75229894 -0.00246869 C106.64809184 0.00197651 117.54387405 0.00124166 128.43966675 -0.00338745 C141.13588762 -0.00877909 153.83210215 -0.01082183 166.52832401 -0.00777519 C167.89197914 -0.00745671 169.25563427 -0.00714234 170.6192894 -0.00683212 C171.28991515 -0.00667785 171.9605409 -0.00652357 172.65148864 -0.00636462 C177.31376375 -0.00551143 181.97603466 -0.00698702 186.63830948 -0.00931168 C202.73878737 -0.01602482 218.83861916 0.00408747 234.93869019 0.12698364 C235.81229281 0.13342298 236.68589544 0.13986231 237.58597088 0.14649677 C242.66824551 0.1881356 247.74766902 0.27077971 252.8288269 0.38528442 C254.52773166 0.40566175 254.52773166 0.40566175 256.26095772 0.42645073 C266.66908668 0.74654118 275.21753364 4.08283873 282.93869019 11.12698364 C284.78254625 13.11960091 286.54068903 15.1619868 288.28244019 17.24417114 C290.6052986 19.88477905 293.19901491 21.92333179 295.93869019 24.12698364 C299.24552279 27.27634803 302.09067021 30.56695867 304.93869019 34.12698364 C308.31001414 37.59644545 311.8241895 40.85103009 315.43869019 44.06448364 C321.28211744 49.33839129 321.28211744 49.33839129 323.62619019 52.31448364 C325.59987161 54.714907 327.4613099 56.5080613 329.81369019 58.50198364 C333.34460763 61.50193606 336.29151798 64.7513987 339.28244019 68.27932739 C341.61834239 70.88518056 344.21228924 72.93400897 346.93869019 75.12698364 C348.62685951 76.77186658 350.29222334 78.44035906 351.93869019 80.12698364 C352.77593628 80.94876099 352.77593628 80.94876099 353.63009644 81.78713989 C356.37164091 84.48131427 358.94853697 87.13910277 361.37619019 90.12698364 C364.00280784 93.20204821 366.78887114 95.72280109 369.87619019 98.31838989 C372.3460263 100.48417421 374.6310903 102.78884199 376.93869019 105.12698364 C377.99002087 106.17981909 379.0421436 107.23186404 380.09494019 108.28323364 C386.78244019 114.97073364 386.78244019 114.97073364 388.39498901 116.58547974 C389.83535826 118.0237988 391.28322728 119.4545965 392.73165894 120.88479614 C394.93869019 123.12698364 394.93869019 123.12698364 396.75119019 125.50198364 C399.2661436 128.51992774 402.08167358 130.89599889 405.06369019 133.43948364 C407.31530012 135.46593259 409.04810833 137.76375632 410.93869019 140.12698364 C412.25557771 141.31218242 413.59072754 142.4772508 414.93869019 143.62698364 C419.85012318 147.8354792 424.59178046 152.23157984 425.19053918 158.95496297 C425.19140596 160.05789087 425.19227274 161.16081877 425.19316578 162.29716873 C425.19899797 163.57163872 425.20483017 164.84610871 425.21083909 166.159199 C425.20720575 167.57645989 425.20338137 168.9937203 425.1993866 170.41098022 C425.20240614 171.91428497 425.20629463 173.41758818 425.21097916 174.92088866 C425.22129362 179.05800715 425.21906858 183.19503932 425.21479857 187.332165 C425.21233753 191.79174 425.22133785 196.25129388 425.22883606 200.71086121 C425.24160324 209.45071773 425.24337417 218.19054357 425.2410358 226.93040785 C425.23925443 234.03408103 425.24099837 241.13774487 425.24526024 248.24141693 C425.24585543 249.25157204 425.24645062 250.26172715 425.24706384 251.30249302 C425.24827557 253.35450604 425.2494897 255.40651905 425.25070622 257.45853207 C425.2615899 276.71526026 425.25941557 295.97197095 425.25332137 315.22870013 C425.24815362 332.84758125 425.25940244 350.46640705 425.27841959 368.08527723 C425.29779026 386.17016619 425.30605521 404.25502898 425.30229634 422.33992839 C425.30038285 432.49560156 425.3028861 442.65122767 425.31701088 452.8068924 C425.32891595 461.45428633 425.33033952 470.10160425 425.31822071 478.74899921 C425.31232538 483.16109806 425.31125057 487.57305782 425.32322311 491.98514748 C425.33405966 496.02558574 425.33100517 500.0657684 425.31696143 504.10619459 C425.31430831 505.56650366 425.31670036 507.02683262 425.32469729 508.48712221 C425.37825869 518.99892034 424.20669408 526.0307459 418.50119019 535.00198364 C417.92497925 535.92753052 417.34876831 536.85307739 416.75509644 537.80667114 C414.89389515 540.18420569 413.64464525 540.94206016 410.93869019 542.12698364 C409.67064452 544.16057845 409.67064452 544.16057845 408.93869019 546.12698364 C408.27869019 546.12698364 407.61869019 546.12698364 406.93869019 546.12698364 C406.93869019 546.78698364 406.93869019 547.44698364 406.93869019 548.12698364 C404.96212769 549.56448364 404.96212769 549.56448364 402.31369019 551.12698364 C401.45517456 551.64260864 400.59665894 552.15823364 399.71212769 552.68948364 C394.33833872 555.47477144 389.79563439 556.37762867 383.75271416 556.38704586 C383.04871117 556.39085153 382.34470818 556.3946572 381.61937177 556.3985782 C379.26047547 556.40888416 376.90182025 556.40498968 374.54290771 556.40113831 C372.83448716 556.40559126 371.12606867 556.4109055 369.4176532 556.41700703 C364.72270762 556.43119074 360.02782823 556.43285025 355.33286428 556.43241012 C350.2692843 556.43405801 345.20573161 556.44712406 340.14216614 556.45860291 C329.06975517 556.48145473 317.99736336 556.48937379 306.924932 556.49442935 C300.01033715 556.49768631 293.09574786 556.5042088 286.18115616 556.51143074 C267.034041 556.5309973 247.88693102 556.54740105 228.73980522 556.55030727 C227.51447602 556.55049484 226.28914682 556.55068241 225.02668644 556.55087567 C222.54267224 556.55124192 220.05865804 556.55160562 217.57464384 556.55196678 C215.72505674 556.552241 215.72505674 556.552241 213.83810425 556.55252075 C211.98625765 556.55279158 211.98625765 556.55279158 210.09700002 556.55306787 C190.09477379 556.55660915 170.09265525 556.58362841 150.09046637 556.62101864 C129.5511073 556.65910551 109.01180167 556.67846478 88.47240651 556.67876679 C76.94167293 556.67935129 65.41106779 556.68783862 53.88036728 556.71676445 C44.0612486 556.7412834 34.2423052 556.74855771 24.42316417 556.73351692 C19.41504859 556.72635008 14.40727909 556.72719596 9.39920235 556.74992752 C4.80955914 556.77055984 0.22052716 556.76787747 -4.36910973 556.74705268 C-6.02458842 556.74356591 -7.68011158 556.7484332 -9.33553196 556.76275712 C-21.26893752 556.85931336 -30.94943564 554.9199225 -41.06130981 548.12698364 C-41.06130981 547.46698364 -41.06130981 546.80698364 -41.06130981 546.12698364 C-41.64138794 545.88592896 -42.22146606 545.64487427 -42.81912231 545.39651489 C-50.82851185 540.86158179 -56.66602783 529.74663718 -59.06130981 521.12698364 C-60.11448917 514.57555642 -59.8776056 507.89752354 -59.8299408 501.28337097 C-59.83758031 499.28571431 -59.84782823 497.28806622 -59.86044234 495.29043478 C-59.8873274 489.82827259 -59.87702222 484.36672949 -59.86031687 478.90455019 C-59.84877191 473.00324705 -59.87180052 467.10206193 -59.89027405 461.20079041 C-59.92077447 449.65068429 -59.91876977 438.10080419 -59.90482322 426.55067474 C-59.8938034 417.1613056 -59.89439527 407.77199848 -59.90314293 398.38262749 C-59.90374636 397.71456101 -59.9043498 397.04649453 -59.90497152 396.35818361 C-59.90742148 393.64600553 -59.90990308 390.93382748 -59.91244382 388.22164949 C-59.93598999 362.79854122 -59.92378785 337.37555773 -59.89609831 311.95245976 C-59.87176149 289.38692838 -59.88139042 266.82164518 -59.91897583 244.25613403 C-59.96114707 218.87987238 -59.98031646 193.50375482 -59.96395129 168.12745851 C-59.96227318 165.42002423 -59.96066026 162.71258991 -59.95908165 160.00515556 C-59.95867461 159.33855916 -59.95826757 158.67196275 -59.95784819 157.98516646 C-59.95214252 147.93828928 -59.96413387 137.8915376 -59.98481178 127.84468269 C-60.00796188 116.41505717 -60.00627926 104.985758 -59.97289864 93.55615241 C-59.95651927 87.7274409 -59.95124078 81.89929501 -59.97649765 76.07060242 C-59.99933158 70.72907058 -59.98953667 65.3886042 -59.95432576 60.04714876 C-59.94723291 58.12065864 -59.9517986 56.19408057 -59.96956477 54.26765931 C-60.09771892 39.26369877 -57.67893551 28.56890562 -46.87380981 17.50198364 C-45.28058683 16.03170227 -43.67718175 14.57233643 -42.06130981 13.12698364 C-41.40904419 12.42960083 -40.75677856 11.73221802 -40.08474731 11.01370239 C-29.81107358 1.4341958 -13.30353515 -0.03262888 0 0 Z M-14.06130981 47.12698364 C-14.63880981 47.58073364 -15.21630981 48.03448364 -15.81130981 48.50198364 C-19.27294721 53.00211225 -19.34993541 58.39793294 -19.31578541 63.84509277 C-19.31899189 64.60660967 -19.32219836 65.36812657 -19.32550201 66.15271974 C-19.33381049 68.707206 -19.32787478 71.26145833 -19.32200623 73.81594849 C-19.32502651 75.6647628 -19.32891538 77.51357586 -19.33359879 79.3623867 C-19.34390318 84.44517347 -19.34169077 89.52788989 -19.3374182 94.61068249 C-19.33495544 100.09132338 -19.34395948 105.57194713 -19.35145569 111.05258179 C-19.36421675 121.79009631 -19.36599467 132.52758585 -19.36365543 143.26510668 C-19.36187386 151.99012563 -19.36361843 160.71513699 -19.36787987 169.44015503 C-19.36847506 170.68097159 -19.36907025 171.92178815 -19.36968347 173.20020521 C-19.37089519 175.72073762 -19.37210933 178.24127003 -19.37332585 180.76180243 C-19.38111497 197.68944842 -19.38503081 214.61709129 -19.3810091 231.54473877 C-19.38085273 232.20671276 -19.38069635 232.86868675 -19.38053524 233.55072056 C-19.37972945 236.90590191 -19.37888368 240.26108325 -19.37802193 243.61626458 C-19.37785085 244.28262033 -19.37767976 244.94897608 -19.37750349 245.63552442 C-19.37715683 246.98305691 -19.3768083 248.3305894 -19.3764579 249.67812189 C-19.37109927 270.65132681 -19.3790351 291.62448969 -19.39749146 312.59768677 C-19.41820047 336.15836426 -19.42890527 359.71902237 -19.42491597 383.27971077 C-19.42300103 395.75589605 -19.42552007 408.23204302 -19.43963051 420.70822144 C-19.45151949 431.32787499 -19.45297707 441.94746666 -19.44084034 452.56712103 C-19.43493449 457.98755951 -19.43389924 463.40788467 -19.44584274 468.82831573 C-19.4566434 473.78759658 -19.45366791 478.74666869 -19.43958106 483.70593953 C-19.43691804 485.50262479 -19.4393506 487.2993261 -19.44731692 489.09599566 C-19.4573784 491.53387582 -19.44903956 493.9710241 -19.43603992 496.40887451 C-19.44334927 497.1101441 -19.45065862 497.81141369 -19.45818946 498.53393388 C-19.40729861 503.12272217 -18.45849695 506.22516077 -16.06130981 510.12698364 C-10.37212327 515.68974382 -5.33294421 517.37450149 2.52676201 517.38425255 C3.84353145 517.39070144 5.16030088 517.39715033 6.51697242 517.40379465 C7.97158145 517.4008526 9.4261901 517.39771718 10.88079834 517.39440918 C12.43120232 517.39814654 13.98160441 517.40274841 15.53200352 517.40813982 C19.7900159 517.42037442 24.04794973 517.42010882 28.30597568 517.41775107 C32.8991255 517.41734303 37.4922501 517.42838082 42.08538818 517.43786621 C51.08298082 517.45447925 60.08054726 517.45997588 69.07815395 517.46109097 C76.39106644 517.46204121 83.70397028 517.46615033 91.01688004 517.47249222 C111.74782091 517.49010477 132.47874107 517.49933096 153.20968948 517.49783127 C154.32730561 517.49775136 155.44492174 517.49767145 156.59640503 517.49758911 C157.71538469 517.49750735 158.83436435 517.49742559 159.98725249 517.49734135 C178.12657542 517.49652825 196.26581536 517.515672 214.40511428 517.54386584 C233.02795315 517.57258303 251.65075152 517.58640681 270.2736131 517.58467829 C280.72996915 517.58401403 291.18623818 517.58952227 301.64257431 517.61103439 C310.54428814 517.62923075 319.44587549 517.63360617 328.34759985 517.62001555 C332.88936882 517.61347835 337.43089501 517.61339583 341.97264099 517.63072205 C346.13148618 517.64642442 350.28989551 517.64361833 354.44872989 517.62615378 C355.9520496 517.62307764 357.45540161 517.62673943 358.95868324 517.63787393 C368.75716753 517.70563451 375.20596354 516.98600096 382.89831734 510.71373367 C386.48928834 505.86934032 385.62942996 499.47845866 385.58465576 493.73898315 C385.59168599 492.35753445 385.60090277 490.97609544 385.61211407 489.59467435 C385.6365466 485.80378056 385.62993296 482.01348045 385.61822033 478.22254944 C385.61101487 474.13253657 385.63258824 470.04266309 385.65061951 465.95269775 C385.68142953 457.94367763 385.68584981 449.93484859 385.68164663 441.92577884 C385.67787838 432.60429141 385.70141114 423.28293359 385.72641434 413.96148625 C385.77019564 397.33566269 385.79099309 380.70989135 385.79806519 364.08401489 C385.80496853 347.93878741 385.82516316 331.79365677 385.86154175 315.64846802 C385.86378053 314.65351864 385.86601931 313.65856927 385.86832593 312.63346991 C385.87735673 308.63461476 385.88642358 304.63575969 385.89555197 300.63690476 C385.93453523 283.41001848 385.96243108 266.18311186 385.98899108 248.95620263 C385.99339486 246.1629677 385.9980696 243.36973335 386.00281286 240.57649899 C386.01918405 230.80306529 386.03226584 221.02964455 386.03592734 211.25619695 C386.03745641 207.21346768 386.04050305 203.17075601 386.04781151 199.12803268 C386.05440681 195.43224825 386.05635517 191.73649253 386.05445768 188.04070297 C386.05462206 186.06013026 386.05969784 184.07955988 386.06490886 182.09899402 C386.06331771 180.93525799 386.06172657 179.77152196 386.0600872 178.57252121 C386.06079432 177.56192036 386.06150144 176.55131952 386.06222999 175.5100944 C386.09726167 173.1105356 386.09726167 173.1105356 384.93869019 171.12698364 C383.8275032 171.11889679 382.71631622 171.11080994 381.57145691 171.10247803 C371.05336505 171.02468967 360.53539737 170.93687041 350.01746845 170.83945656 C344.61127048 170.78970227 339.20509009 170.74337184 333.79879761 170.70510864 C328.57265431 170.66799044 323.34666613 170.62156173 318.12065697 170.56892014 C316.13580255 170.55051614 314.15091506 170.53535772 312.1660099 170.52363968 C292.12079225 170.40116383 275.11662521 169.83933783 259.93869019 155.12698364 C248.22238194 142.45601325 248.33661724 125.86145702 248.32931519 109.63088989 C248.31429876 107.7017531 248.2975645 105.77262899 248.27920532 103.84352112 C248.23590783 98.81804749 248.21561707 93.79274713 248.20046997 88.76712036 C248.18076185 83.61809194 248.13880823 78.46924703 248.09884644 73.32034302 C248.02395269 63.25594703 247.97341542 53.19159291 247.93869019 43.12698364 C215.42795442 43.03574417 182.91725553 42.96495061 150.40642097 42.92272232 C146.56870711 42.91771946 142.73099351 42.91254218 138.89328003 42.90725708 C137.74724475 42.90568322 137.74724475 42.90568322 136.57805724 42.90407756 C124.20513954 42.88666968 111.83229613 42.8551299 99.45942251 42.81837246 C86.76483887 42.78097366 74.07029415 42.75875004 61.37565768 42.75062966 C53.54159895 42.74513967 45.70775022 42.72779668 37.87375613 42.69531778 C31.86782969 42.6716854 25.86208411 42.66916111 19.8561058 42.67455292 C17.39140021 42.67345071 14.9266868 42.66547085 12.4620285 42.65016174 C9.10071368 42.63030381 5.74030237 42.63502997 2.37896729 42.64596558 C1.40036157 42.63431421 0.42175586 42.62266284 -0.58650458 42.61065841 C-6.41692751 42.66204144 -9.55918532 43.35965101 -14.06130981 47.12698364 Z " fill="#DB4238" transform="translate(59.061309814453125,-0.126983642578125)"/>
<path d="M0 0 C0.94455551 -0.0127597 1.88911102 -0.02551941 2.86228943 -0.03866577 C3.87590042 -0.04089142 4.88951141 -0.04311707 5.93383789 -0.04541016 C6.98172989 -0.05206696 8.02962189 -0.05872375 9.10926819 -0.06558228 C11.3241297 -0.07570159 13.53902165 -0.08039952 15.75390625 -0.08007812 C19.1405663 -0.08445209 22.52592393 -0.12078269 25.91235352 -0.15869141 C28.06534385 -0.16455953 30.21834038 -0.16852895 32.37133789 -0.17041016 C33.38292465 -0.18478119 34.39451141 -0.19915222 35.43675232 -0.21395874 C39.79944267 -0.18563274 42.49205713 -0.12452344 46.33447266 2.06933594 C49.96200004 6.34492139 49.36318473 11.26257908 49.35270691 16.64111328 C49.35497247 17.49108761 49.35723802 18.34106194 49.35957223 19.21679306 C49.36591058 22.06950991 49.36508298 24.92217923 49.36425781 27.77490234 C49.36724936 29.81823793 49.37065187 31.86157295 49.37443542 33.90490723 C49.38327887 39.45848385 49.38561365 45.01204507 49.38625121 50.56562805 C49.38719997 55.19810525 49.39087778 59.83057884 49.39442331 64.46305466 C49.40256874 75.38862032 49.40500741 86.31417774 49.40429688 97.23974609 C49.40369565 108.52098934 49.41425616 119.80218483 49.43004054 131.08341599 C49.44310088 140.76161296 49.44848143 150.4397943 49.44784147 160.11800003 C49.44758609 165.90172249 49.4504593 171.6854025 49.46101952 177.46911621 C49.47067549 182.90602757 49.47079691 188.34285567 49.46350288 193.7797699 C49.46245401 195.77766542 49.46483778 197.77556605 49.47086334 199.77345276 C49.47854335 202.49571464 49.47396507 205.2176861 49.4662323 207.93994141 C49.47137586 208.73487881 49.47651943 209.52981621 49.48181885 210.34884262 C49.45797252 214.1343705 49.41545628 217.1188516 47.21899414 220.29052734 C44.30085238 223.05676617 42.31019852 223.66926826 38.33032227 223.69458008 C36.87861633 223.71360634 36.87861633 223.71360634 35.39758301 223.73301697 C34.35896118 223.73008133 33.32033936 223.72714569 32.25024414 223.72412109 C31.17778442 223.72936295 30.10532471 223.7346048 29.00036621 223.74000549 C26.73422104 223.74642537 24.46804255 223.74508917 22.2019043 223.73657227 C18.73173843 223.72805861 15.26321629 223.75683188 11.79321289 223.78857422 C9.59139047 223.7901862 7.38956513 223.78960877 5.18774414 223.78662109 C4.14912231 223.79785507 3.11050049 223.80908905 2.04040527 223.82066345 C-5.12552865 223.75120385 -5.12552865 223.75120385 -8.40405273 221.44702148 C-11.15265366 217.14234205 -10.92435213 213.04465832 -10.91471863 208.11834717 C-10.91698418 207.27542752 -10.91924974 206.43250786 -10.92158395 205.56404519 C-10.92793281 202.72904369 -10.92709401 199.89408988 -10.92626953 197.05908203 C-10.92926052 195.03061359 -10.9326629 193.00214571 -10.93644714 190.97367859 C-10.94529867 185.45496415 -10.94762577 179.93626521 -10.94826293 174.41754436 C-10.94921141 169.81273873 -10.95288911 165.20793673 -10.95643502 160.60313249 C-10.96458437 149.73834948 -10.96701887 138.87357477 -10.96630859 128.00878906 C-10.96570803 116.79863087 -10.97625448 105.58852083 -10.99205226 94.37837481 C-11.00512706 84.75790008 -11.0104925 75.13744108 -11.00985318 65.51695752 C-11.00959813 59.76945381 -11.0124533 54.02199286 -11.02303123 48.27449799 C-11.03271087 42.86713835 -11.03279226 37.45986235 -11.0255146 32.05249977 C-11.02446852 30.06876567 -11.02683306 28.08502637 -11.03287506 26.10130119 C-11.04059471 23.39098315 -11.03595025 20.68095393 -11.02824402 17.97064209 C-11.03338758 17.18765204 -11.03853114 16.40466199 -11.04383057 15.59794497 C-11.01375208 10.80276598 -10.41350717 6.816785 -8.78100586 2.29052734 C-6.00564916 0.13347543 -3.44665336 0.0317054 0 0 Z " fill="#2F7F4A" transform="translate(352.781005859375,245.70947265625)"/>
<path d="M0 0 C1.01900391 0.00322266 2.03800781 0.00644531 3.08789062 0.00976562 C4.10302734 -0.00634766 5.11816406 -0.02246094 6.1640625 -0.0390625 C7.62489258 -0.0400293 7.62489258 -0.0400293 9.11523438 -0.04101562 C10.45509399 -0.04548706 10.45509399 -0.04548706 11.82202148 -0.05004883 C14.15039062 0.32226562 14.15039062 0.32226562 15.93310547 1.59423828 C17.38334481 3.65296152 17.56808721 4.83299484 17.66210938 7.33398438 C17.69755859 8.09130859 17.73300781 8.84863281 17.76953125 9.62890625 C17.79208984 10.41458984 17.81464844 11.20027344 17.83789062 12.00976562 C17.87205078 12.80705078 17.90621094 13.60433594 17.94140625 14.42578125 C18.02377166 16.39078467 18.0887613 18.35650259 18.15039062 20.32226562 C18.87742187 20.48339844 19.60445313 20.64453125 20.35351562 20.81054688 C30.82373591 23.6428757 38.50519615 29.46912478 44.20117188 38.61523438 C47.22693623 44.775084 49.15039062 50.43723791 49.15039062 57.32226562 C45.50824706 60.96440919 39.69880618 59.73509372 34.77539062 59.75976562 C33.62554687 59.79263672 32.47570312 59.82550781 31.29101562 59.859375 C22.83465689 59.91358243 22.83465689 59.91358243 19.44726562 56.98632812 C18.52530066 55.09241215 17.63815342 53.18137367 16.77539062 51.25976562 C14.62842359 47.37870983 13.22989599 46.15100941 9.15039062 44.32226562 C2.60792076 43.58145161 -4.44960975 43.05910803 -9.84960938 47.32226562 C-12.54356419 51.36319785 -13.45240567 54.49989523 -12.84960938 59.32226562 C-11.61371211 63.64790605 -9.7845677 65.70764658 -5.97460938 67.88476562 C0.18071989 70.71802748 6.7379041 71.97386599 13.31665039 73.44750977 C20.30319135 75.03827036 26.72869988 77.09083791 33.15039062 80.32226562 C33.89289063 80.66515625 34.63539063 81.00804687 35.40039062 81.36132812 C42.47942899 85.08854908 46.36407839 91.95175502 49.32226562 99.18945312 C51.93649088 109.07911659 51.0182196 120.31464074 46.15039062 129.32226562 C39.70799328 139.29004263 32.40407426 144.63895691 21.15039062 148.32226562 C19.83039063 148.32226562 18.51039063 148.32226562 17.15039062 148.32226562 C17.16199219 149.37027344 17.17359375 150.41828125 17.18554688 151.49804688 C17.19492718 152.87695134 17.20402712 154.25585774 17.21289062 155.63476562 C17.22126953 156.32505859 17.22964844 157.01535156 17.23828125 157.7265625 C17.25346968 160.87056813 17.15232389 163.31646582 16.15039062 166.32226562 C11.0285145 167.16026892 6.08717511 167.50492721 0.90039062 167.50976562 C0.19398438 167.52201172 -0.51242188 167.53425781 -1.24023438 167.546875 C-4.99882434 167.55755281 -6.64320072 167.4598714 -9.84960938 165.32226562 C-10.23355605 162.54964308 -10.45303186 159.97903034 -10.53710938 157.19726562 C-10.57126953 156.44316406 -10.60542969 155.6890625 -10.640625 154.91210938 C-10.72315215 153.04935362 -10.78805649 151.18583236 -10.84960938 149.32226562 C-11.59984375 149.16371094 -12.35007813 149.00515625 -13.12304688 148.84179688 C-22.65180008 146.66962517 -31.32696179 143.96308137 -37.84960938 136.32226562 C-38.69523438 135.45601562 -39.54085937 134.58976563 -40.41210938 133.69726562 C-45.90924349 126.93022395 -47.40534358 118.79721231 -46.84960938 110.32226562 C-42.25957806 107.69331652 -38.08338742 107.99120397 -32.91210938 108.00976562 C-32.01814453 107.99365234 -31.12417969 107.97753906 -30.203125 107.9609375 C-25.32500688 107.95731603 -21.70867168 107.98531175 -17.84960938 111.32226562 C-16.69726562 113.18945312 -16.69726562 113.18945312 -15.91210938 115.19726562 C-13.93471107 119.54433962 -11.78368766 121.61758681 -7.84960938 124.32226562 C-1.75812553 126.33143151 5.53279515 126.14555718 11.58789062 124.13476562 C15.4265901 122.18174308 17.16129551 121.13469793 19.15039062 117.32226562 C20.09049047 112.47851307 19.71641608 109.28998656 17.21289062 105.00976562 C10.73014744 98.44736257 0.55892857 97.07365609 -8.03710938 95.07226562 C-20.83902709 91.92572444 -31.73401244 88.32103458 -40.84960938 78.32226562 C-44.27499815 71.47148808 -45.03048503 65.52551865 -45.03710938 57.94726562 C-45.04935547 57.21765625 -45.06160156 56.48804688 -45.07421875 55.73632812 C-45.09790277 46.8942938 -42.48135576 40.10987262 -36.84960938 33.32226562 C-30.23485528 27.32226562 -30.23485528 27.32226562 -26.84960938 27.32226562 C-26.51960938 26.33226562 -26.18960938 25.34226563 -25.84960938 24.32226562 C-20.94874057 22.20982217 -15.98554205 20.77102145 -10.84960938 19.32226562 C-10.800625 18.11828125 -10.75164062 16.91429687 -10.70117188 15.67382812 C-10.62614595 14.09828365 -10.55059804 12.52276396 -10.47460938 10.94726562 C-10.42820312 9.75617188 -10.42820312 9.75617188 -10.38085938 8.54101562 C-9.95235831 0.11382803 -7.6361399 0.05566437 0 0 Z " fill="#34824E" transform="translate(251.849609375,150.677734375)"/>
<path d="M0 0 C1.50098991 0.00056648 1.50098991 0.00056648 3.03230286 0.00114441 C4.10018539 0.02695084 5.16806793 0.05275726 6.26831055 0.0793457 C7.37103806 0.08642044 8.47376556 0.09349518 9.60990906 0.1007843 C13.12564446 0.12873207 16.63977673 0.1914753 20.1550293 0.25512695 C22.54107398 0.28020915 24.92714366 0.30302245 27.31323242 0.32348633 C33.15687667 0.37856003 38.99958845 0.46219151 44.8425293 0.56762695 C44.8425293 1.22762695 44.8425293 1.88762695 44.8425293 2.56762695 C45.4819043 2.83575195 46.1212793 3.10387695 46.7800293 3.38012695 C48.8425293 4.56762695 48.8425293 4.56762695 49.8425293 7.56762695 C49.93892988 9.29440285 49.97746698 11.02466395 49.98297119 12.75411987 C49.98868134 13.82802979 49.99439148 14.9019397 50.00027466 16.00839233 C50.00139252 17.18664581 50.00251038 18.36489929 50.00366211 19.57885742 C50.01110947 21.44015289 50.01110947 21.44015289 50.01870728 23.33905029 C50.03081695 26.74407418 50.0382742 30.14903665 50.04271793 33.55407476 C50.04564997 35.68167352 50.049755 37.8092669 50.05422211 39.93686295 C50.06789387 46.59451042 50.07756235 53.25214559 50.081424 59.90980613 C50.08590546 67.59363231 50.10345862 75.27728067 50.13242459 82.96105278 C50.15404172 88.90169796 50.16412828 94.84229312 50.16546512 100.78297722 C50.16651304 104.33058581 50.17241809 107.87802717 50.19028473 111.42559433 C50.20982805 115.38299041 50.20547629 119.34016421 50.19897461 123.29760742 C50.21279678 125.05891495 50.21279678 125.05891495 50.22689819 126.85580444 C50.22132904 127.935354 50.21575989 129.01490356 50.21002197 130.12716675 C50.21148853 131.06257734 50.21295509 131.99798794 50.21446609 132.96174431 C49.76503462 136.11057412 48.72830765 138.02508864 46.8425293 140.56762695 C46.1825293 140.56762695 45.5225293 140.56762695 44.8425293 140.56762695 C44.8425293 141.22762695 44.8425293 141.88762695 44.8425293 142.56762695 C37.65277913 142.69432846 30.46331642 142.78193693 23.27270508 142.84228516 C20.82630657 142.86744051 18.3799833 142.90156861 15.93383789 142.94482422 C12.41883799 143.00542767 8.90483101 143.03382717 5.3894043 143.0559082 C4.29448669 143.08171463 3.19956909 143.10752106 2.07147217 143.1341095 C1.05071594 143.13448715 0.02995972 143.13486481 -1.02172852 143.13525391 C-1.91885559 143.14635696 -2.81598267 143.15746002 -3.74029541 143.16889954 C-6.1574707 142.56762695 -6.1574707 142.56762695 -8.44511414 140.81999207 C-11.14438325 135.69313422 -10.72174665 130.67103101 -10.69091797 124.9621582 C-10.69953354 123.68198822 -10.70814911 122.40181824 -10.71702576 121.08285522 C-10.73949906 117.57865927 -10.73658537 114.07491541 -10.72770429 110.5706749 C-10.7225893 107.64314753 -10.72989096 104.71570473 -10.73717636 101.78818607 C-10.75416836 94.88158314 -10.7506162 87.9752012 -10.73388672 81.06860352 C-10.71695912 73.94688938 -10.73280966 66.8257879 -10.7651096 59.70414066 C-10.79180942 53.58507029 -10.79908072 47.4661906 -10.79059452 41.34706783 C-10.78566716 37.69434445 -10.78787014 34.0419898 -10.80838203 30.38931274 C-10.83015741 26.31685143 -10.81133655 22.2455515 -10.78857422 18.1730957 C-10.80026642 16.96462982 -10.81195862 15.75616394 -10.82400513 14.51107788 C-10.73167892 6.4099584 -10.73167892 6.4099584 -7.94036865 2.31526184 C-4.94591566 0.43477229 -3.49628173 -0.04425673 0 0 Z " fill="#2E7F49" transform="translate(271.157470703125,326.432373046875)"/>
<path d="M0 0 C1.48162376 -0.01395813 1.48162376 -0.01395813 2.99317932 -0.02819824 C4.5761808 -0.00360535 4.5761808 -0.00360535 6.19116211 0.02148438 C7.28440292 0.02144409 8.37764374 0.02140381 9.50401306 0.0213623 C11.81132772 0.02671606 14.118642 0.04429237 16.42578125 0.07324219 C19.95946885 0.11512726 23.4912523 0.1143072 27.02514648 0.10742188 C29.26799828 0.11791339 31.51084025 0.13085128 33.75366211 0.14648438 C34.81102066 0.14668579 35.86837921 0.14688721 36.95777893 0.14709473 C37.94237595 0.16300659 38.92697296 0.17891846 39.94140625 0.1953125 C40.80568741 0.20373169 41.66996857 0.21215088 42.56044006 0.2208252 C45.69056991 0.74715959 46.85326307 1.13459499 48.90600586 3.61523438 C49.54029331 6.87438665 49.50061322 10.11139938 49.49951172 13.42333984 C49.51466827 14.4301178 49.52982483 15.43689575 49.54544067 16.47418213 C49.5903167 19.81036356 49.60628068 23.14598051 49.62084961 26.48242188 C49.64344435 28.79787474 49.66735194 31.11331513 49.69252014 33.42874146 C49.74091538 38.28598311 49.77539416 43.14306832 49.79980469 48.00048828 C49.83191928 54.22746739 49.89518687 60.45365057 49.96849728 66.68026543 C50.02192029 71.46368728 50.06040555 76.24713778 50.09420967 81.03073502 C50.11192823 83.32649518 50.13392535 85.62222642 50.16026115 87.9179039 C50.19452381 91.12816466 50.20907703 94.33792232 50.21826172 97.54833984 C50.23211411 98.49812714 50.24596649 99.44791443 50.26023865 100.42648315 C50.25204312 105.25209808 50.20435185 108.77177744 46.90600586 112.61523438 C46.24600586 112.61523438 45.58600586 112.61523438 44.90600586 112.61523438 C44.90600586 113.27523437 44.90600586 113.93523437 44.90600586 114.61523438 C28.40600586 114.61523438 11.90600586 114.61523438 -5.09399414 114.61523438 C-5.09399414 113.95523438 -5.09399414 113.29523438 -5.09399414 112.61523438 C-5.73336914 112.32648438 -6.37274414 112.03773438 -7.03149414 111.74023438 C-9.09399414 110.61523438 -9.09399414 110.61523438 -10.09399414 108.61523438 C-10.195937 107.24568416 -10.23770759 105.87139392 -10.24789429 104.49809265 C-10.25649475 103.63591125 -10.26509521 102.77372986 -10.2739563 101.88542175 C-10.27821625 100.93734146 -10.2824762 99.98926117 -10.28686523 99.01245117 C-10.29504272 98.01557281 -10.30322021 97.01869446 -10.31164551 95.99160767 C-10.33652065 92.68256232 -10.35302025 89.37355991 -10.36743164 86.06445312 C-10.37275532 84.93617411 -10.37807899 83.80789509 -10.383564 82.6454258 C-10.41030373 76.67451277 -10.42967674 70.70362073 -10.4440918 64.73266602 C-10.46074912 58.55848722 -10.5055342 52.38484122 -10.55646324 46.21086407 C-10.59008106 41.46939972 -10.60166324 36.72806273 -10.60731888 31.98649025 C-10.61404556 29.71026343 -10.62930411 27.43404541 -10.65320969 25.15793419 C-10.68474822 21.97357836 -10.68491466 18.7906715 -10.67749023 15.60620117 C-10.69389557 14.66419357 -10.7103009 13.72218597 -10.72720337 12.75163269 C-10.68469081 8.30212248 -10.53569488 6.22976252 -7.87590027 2.5292511 C-4.89236828 0.47651105 -3.56689971 -0.00847092 0 0 Z " fill="#2F7F4A" transform="translate(190.093994140625,354.384765625)"/>
<path d="M0 0 C1.01778786 0.03753891 1.01778786 0.03753891 2.05613708 0.07583618 C4.22415553 0.157708 6.39122597 0.25408765 8.55859375 0.3515625 C10.69476607 0.43866433 12.83103407 0.52271745 14.96737671 0.60552979 C16.35892853 0.65997326 17.75039228 0.71671874 19.14175415 0.77581787 C23.99775846 0.97330127 28.82314835 0.97516941 33.67944336 0.80322266 C36.55456277 1.0183491 38.45995558 1.58859524 40.99609375 2.9765625 C43.76415057 6.7294775 44.37378537 9.41071145 44.38427734 14.03271484 C44.39373383 15.23100922 44.40319031 16.42930359 44.41293335 17.66390991 C44.40686066 18.95044464 44.40078796 20.23697937 44.39453125 21.5625 C44.39655444 22.90622109 44.39946793 24.2499411 44.40322876 25.59365845 C44.40764366 28.40629558 44.40125039 31.21864626 44.38720703 34.03125 C44.37014819 37.62122202 44.37993991 41.21051946 44.39792442 44.80046654 C44.40881335 47.5750325 44.40529213 50.34944105 44.39754105 53.12401199 C44.39458923 55.08645316 44.4036411 57.04890064 44.41293335 59.01132202 C44.30573254 72.66692371 44.30573254 72.66692371 38.99609375 77.9765625 C36.92227173 78.24398804 36.92227173 78.24398804 34.33447266 78.26708984 C32.88254013 78.2862294 32.88254013 78.2862294 31.40127563 78.30575562 C30.35233124 78.30798126 29.30338684 78.31020691 28.22265625 78.3125 C27.14736664 78.3191568 26.07207703 78.3258136 24.96420288 78.33267212 C22.68611363 78.34281165 20.4079946 78.34748874 18.12988281 78.34716797 C14.64208 78.35153622 11.15554706 78.38782993 7.66796875 78.42578125 C5.45703559 78.43165004 3.2460964 78.43561902 1.03515625 78.4375 C-0.00973969 78.45187103 -1.05463562 78.46624207 -2.13119507 78.48104858 C-9.34908363 78.43546161 -9.34908363 78.43546161 -12.63134766 76.13525391 C-15.04526486 72.33876584 -15.14205949 69.24134495 -15.1809082 64.84033203 C-15.19374344 63.57536896 -15.20657867 62.31040588 -15.21980286 61.0071106 C-15.22796986 59.62453605 -15.23541367 58.24195707 -15.2421875 56.859375 C-15.24626303 56.16228298 -15.25033855 55.46519096 -15.25453758 54.74697495 C-15.27537654 51.05837045 -15.28968849 47.36980293 -15.29907227 43.68115234 C-15.31014182 39.87566287 -15.34455328 36.07075729 -15.38424397 32.26547432 C-15.41040961 29.33489915 -15.41876391 26.40446329 -15.42235374 23.47378159 C-15.42721867 22.07116622 -15.4388302 20.66855704 -15.45739174 19.26605606 C-15.48178065 17.30137507 -15.47839861 15.33640919 -15.47387695 13.37158203 C-15.47974319 12.25478058 -15.48560944 11.13797913 -15.49165344 9.98733521 C-14.7957743 5.69180268 -12.67375492 3.1872759 -9.19165039 0.66259766 C-6.05136386 -0.32213676 -3.28316752 -0.13758358 0 0 Z " fill="#2E7F49" transform="translate(114.00390625,391.0234375)"/>
<path d="M0 0 C0.9046892 -0.0039821 1.80937841 -0.00796419 2.74148244 -0.01206696 C3.73660857 -0.00624128 4.73173471 -0.00041559 5.75701618 0.00558662 C6.81313597 0.00387777 7.86925575 0.00216892 8.95737916 0.00040829 C12.51356901 -0.00289878 16.06957221 0.0081372 19.62574482 0.01904488 C22.16802688 0.01960873 24.71030926 0.01929294 27.25259113 0.01815987 C32.73485617 0.01770371 38.21706058 0.02339445 43.69931316 0.03463554 C51.62575309 0.05087777 59.55216998 0.05609724 67.47862474 0.05861153 C80.33822468 0.06299064 93.19779927 0.0763056 106.05738544 0.09521675 C118.55054822 0.11356996 131.04370411 0.1277292 143.53687763 0.13623238 C144.30673432 0.13675782 145.07659101 0.13728327 145.86977669 0.13782464 C149.73185513 0.14043468 153.59393361 0.14296211 157.45601213 0.14544845 C189.50455148 0.16618768 221.55305967 0.20141909 253.6015749 0.24609566 C253.6015749 0.90609566 253.6015749 1.56609566 253.6015749 2.24609566 C251.63083783 2.2482955 251.63083783 2.2482955 249.6202879 2.25053978 C218.43656062 2.28623756 187.25294497 2.34247259 156.06930568 2.42401661 C152.23159242 2.43403413 148.39387873 2.44387825 144.55616474 2.45361519 C143.79214122 2.45555656 143.0281177 2.45749793 142.24094196 2.45949814 C129.86806805 2.49052386 117.4952127 2.50750038 105.12230723 2.51928988 C92.42766598 2.53169849 79.73312215 2.55919328 67.03854239 2.60070872 C59.20453501 2.62585253 51.37068914 2.6392123 43.53664084 2.63752523 C37.53065001 2.63749197 31.5249199 2.65844266 25.51899052 2.68726349 C23.05431237 2.6957954 20.58959979 2.69749024 18.12491322 2.69189835 C14.76353017 2.68528677 11.40313549 2.70311234 8.041852 2.72711372 C7.06324628 2.71935331 6.08464057 2.71159289 5.07638013 2.70359731 C-0.72238082 2.77705328 -3.96655403 3.41404169 -8.3984251 7.24609566 C-11.97431637 12.30166608 -12.54493273 16.55150928 -12.52985287 22.5950613 C-12.5319055 23.35311667 -12.53395813 24.11117203 -12.53607297 24.89219877 C-12.54176381 27.45291423 -12.54028316 30.01357625 -12.538867 32.57429695 C-12.54144944 34.42052116 -12.54446225 36.2667448 -12.5478704 38.11296767 C-12.55595784 43.2025138 -12.55773094 48.29204584 -12.55846786 53.38159764 C-12.56031538 58.86433233 -12.56786115 64.34705966 -12.57460308 69.82979012 C-12.58819902 81.82549954 -12.594213 93.82120563 -12.59861374 105.81692147 C-12.60137387 113.30282681 -12.60561079 120.78873085 -12.61011791 128.27463531 C-12.62231192 148.98890823 -12.63264657 169.70318019 -12.635993 190.41745663 C-12.63621464 191.75722946 -12.63643642 193.0970023 -12.63665836 194.43677513 C-12.636879 195.77980507 -12.63709948 197.12283501 -12.6373198 198.46586496 C-12.63776236 201.16026803 -12.63820947 203.8546711 -12.63865948 206.54907417 C-12.63876887 207.21713049 -12.63887826 207.8851868 -12.63899096 208.57348724 C-12.64262244 230.24032546 -12.65854578 251.90713024 -12.68184984 273.57395565 C-12.70643631 296.47490731 -12.72015855 319.37584553 -12.72136092 342.27681178 C-12.7222788 354.76310568 -12.72805955 367.2493558 -12.74618053 379.73563766 C-12.76155389 390.36633903 -12.76671834 400.99698309 -12.75844243 411.62769345 C-12.75452619 417.05418984 -12.75551291 422.4805707 -12.76949978 427.90705299 C-12.78218032 432.87199974 -12.78109287 437.83674347 -12.76890907 442.80168971 C-12.76694189 444.6004855 -12.77007724 446.39929539 -12.77875343 448.19807134 C-12.78978338 450.63883144 -12.78240249 453.07886711 -12.7703619 455.51960659 C-12.78175469 456.57279729 -12.78175469 456.57279729 -12.79337764 457.64726457 C-12.74435533 462.23479527 -11.78212564 465.33857387 -9.3984251 469.24609566 C-6.02522794 472.52812533 -2.91093261 473.98679124 1.6015749 475.24609566 C1.6015749 475.57609566 1.6015749 475.90609566 1.6015749 476.24609566 C-3.85831614 476.02324296 -6.66900777 474.71817294 -10.8203001 471.20703316 C-14.95198992 466.07310175 -15.84040444 460.81561432 -15.77594852 454.38932133 C-15.78030885 453.62496221 -15.78466917 452.8606031 -15.78916162 452.07308158 C-15.80009967 449.51484351 -15.78970279 446.95714646 -15.77937603 444.39891243 C-15.78283316 442.54510903 -15.78759809 440.69130769 -15.79355776 438.83751065 C-15.80608967 433.7455472 -15.79988738 428.65375228 -15.79059911 423.5617882 C-15.783818 418.06957263 -15.79428516 412.57738626 -15.80253887 407.08517647 C-15.81588814 396.32706383 -15.81299321 385.56901394 -15.80430095 374.81089883 C-15.79752987 366.06921565 -15.79660519 357.32755007 -15.7998724 348.58586502 C-15.8003321 347.34240859 -15.8007918 346.09895216 -15.80126543 344.81781523 C-15.80222459 342.29188735 -15.80319723 339.76595948 -15.8041832 337.24003161 C-15.81249649 314.22287595 -15.80387099 291.2057481 -15.78815541 268.18859926 C-15.77391689 247.17495017 -15.77519401 226.16135561 -15.78953838 205.14770699 C-15.80560031 181.53904266 -15.81191824 157.93040156 -15.80270159 134.32173115 C-15.80174593 131.80532428 -15.80080282 129.28891741 -15.7998724 126.77251053 C-15.79940957 125.53433421 -15.79894675 124.29615788 -15.79846989 123.02046106 C-15.79587747 114.28679611 -15.8002564 105.55315048 -15.80731106 96.81948853 C-15.81571634 86.1797261 -15.8134663 75.54003008 -15.79746883 64.90027528 C-15.7895733 59.46970657 -15.78651638 54.03924867 -15.79641628 48.60868073 C-15.805337 43.6401828 -15.80047365 38.67189873 -15.78448363 33.70342029 C-15.78112471 31.90340224 -15.78285471 30.10336623 -15.79011099 28.30335968 C-15.79920368 25.86099076 -15.78990745 23.419359 -15.77594852 20.97702885 C-15.78297202 20.27444076 -15.78999552 19.57185267 -15.79723185 18.84797403 C-15.72778366 12.78863269 -13.93534499 8.93670754 -9.8984251 4.49609566 C-6.49535067 1.43332867 -4.54182296 -0.0044074 0 0 Z " fill="#F2D2CD" transform="translate(53.39842510223389,40.75390434265137)"/>
<path d="M0 0 C0.55429687 0.42152344 1.10859375 0.84304688 1.6796875 1.27734375 C2.40414062 1.82519531 3.12859375 2.37304688 3.875 2.9375 C4.59429687 3.48277344 5.31359375 4.02804687 6.0546875 4.58984375 C9.53072176 7.10961959 11.67648717 7.12380776 15.95138836 7.12025452 C17.22800955 7.12162887 18.50463073 7.12300322 19.81993741 7.12441921 C21.25005025 7.12087468 22.68016286 7.11724015 24.11027527 7.11352539 C25.6192375 7.11324561 27.12819988 7.11340789 28.63716203 7.11397648 C32.79947489 7.11427323 36.96175948 7.10831989 41.12406576 7.10140657 C45.60765702 7.0950522 50.09124928 7.09446492 54.57484436 7.0932312 C62.35159447 7.09033907 70.12833514 7.08389033 77.9050808 7.07516479 C89.16538624 7.06262436 100.42568816 7.05653685 111.68599943 7.05223143 C129.97515799 7.04515616 148.26431216 7.03435037 166.5534668 7.02050781 C167.64894737 7.01968 168.74442795 7.01885219 169.87310491 7.01799929 C178.75478014 7.01125944 187.63645523 7.00433921 196.5181303 6.99739647 C204.26265647 6.9913474 212.00718268 6.98536556 219.75170898 6.97949219 C220.84191686 6.97866406 221.93212474 6.97783593 223.05536922 6.97698271 C241.25887344 6.96327765 259.46237773 6.95352764 277.66588575 6.94658184 C288.89029105 6.94210823 300.1146831 6.93408374 311.33908222 6.92143703 C319.04171735 6.91298509 326.74434944 6.90811451 334.4469889 6.90601182 C338.8862278 6.90467203 343.32544956 6.90169787 347.76468277 6.89425278 C351.83817524 6.8874474 355.9116431 6.8853793 359.98514072 6.88688838 C361.44967328 6.88661951 362.91420682 6.88468245 364.37873425 6.8807956 C373.97042649 6.85654596 383.44265352 7.24737369 393 8 C390.25038181 10.74961819 388.71002448 10.25253336 384.85726738 10.25726891 C382.87838424 10.26694224 382.87838424 10.26694224 380.85952365 10.276811 C379.38135482 10.27386823 377.90318637 10.27073276 376.42501831 10.26742554 C374.86569216 10.27115876 373.30636787 10.27575896 371.74704659 10.28115618 C367.44579244 10.29344275 363.14461574 10.29311908 358.84334803 10.29076743 C354.21059107 10.29036067 349.57785942 10.30138507 344.94511414 10.31088257 C335.86141427 10.32752579 326.77774035 10.33299366 317.69402651 10.33410732 C310.31093828 10.33505647 302.92785863 10.33916008 295.5447731 10.34550858 C274.62418708 10.36313203 253.70362161 10.37234602 232.78302811 10.37084763 C231.08977002 10.37072776 231.08977002 10.37072776 229.36230469 10.37060547 C227.66698442 10.37048283 227.66698442 10.37048283 225.93741526 10.37035771 C207.62647537 10.36954506 189.3156178 10.38867444 171.00470172 10.4168822 C152.2147477 10.44559996 133.42483383 10.45942303 114.6348573 10.45769465 C104.08119111 10.45703024 93.52761114 10.46254444 82.97396469 10.48405075 C73.98614943 10.50224824 64.99845944 10.50662187 56.01063375 10.4930319 C51.42433759 10.48649429 46.83828185 10.48641349 42.25200844 10.5037384 C38.05229578 10.51943981 33.85301476 10.51663561 29.65331282 10.49917014 C28.13506882 10.4960937 26.61679284 10.49975692 25.09858654 10.51089029 C15.72350927 10.57507885 8.92158347 10.18334595 1.5 3.875 C0 2 0 2 0 0 Z " fill="#DA3327" transform="translate(40,509)"/>
<path d="M0 0 C1.05868306 -0.0034177 2.11736612 -0.0068354 3.20813048 -0.01035666 C6.7552096 -0.01694468 10.30153186 0.00505679 13.84854126 0.0269165 C16.39126569 0.02804478 18.93399142 0.02741152 21.47671509 0.02514648 C26.95081585 0.02423564 32.42467294 0.03558002 37.8987236 0.05809784 C45.81318365 0.09063319 53.72755153 0.10102641 61.6420712 0.10604981 C74.48340782 0.11480006 87.32464269 0.1414083 100.16592407 0.17926025 C112.63857515 0.21598733 125.11119857 0.24429567 137.58389282 0.2612915 C138.7374956 0.26286784 138.7374956 0.26286784 139.91440348 0.26447603 C143.77266989 0.26969626 147.63093649 0.27475107 151.48920321 0.27972364 C183.48747448 0.32117729 215.48562068 0.39161835 247.48379517 0.48101807 C247.48379517 1.14101807 247.48379517 1.80101807 247.48379517 2.48101807 C245.5130581 2.48321791 245.5130581 2.48321791 243.50250816 2.48546219 C212.31878089 2.52115997 181.13516524 2.57739499 149.95152595 2.65893902 C146.11381269 2.66895654 142.276099 2.67880066 138.43838501 2.6885376 C137.67436149 2.69047897 136.91033797 2.69242034 136.12316222 2.69442055 C123.75028832 2.72544627 111.37743297 2.74242279 99.00452749 2.75421229 C86.30988625 2.7666209 73.61534241 2.79411569 60.92076266 2.83563113 C53.08675528 2.86077493 45.25290941 2.87413471 37.41886111 2.87244764 C31.41287028 2.87241438 25.40714017 2.89336506 19.40121078 2.9221859 C16.93653263 2.93071781 14.47182006 2.93241265 12.00713348 2.92682076 C8.64575044 2.92020918 5.28535576 2.93803475 1.92407227 2.96203613 C0.94546655 2.95427572 -0.03313916 2.9465153 -1.0413996 2.93851972 C-6.83793967 3.01194755 -10.08813438 3.64616284 -14.51620483 7.48101807 C-16.28768855 9.96035003 -16.28768855 9.96035003 -17.51620483 12.48101807 C-18.17620483 13.47101807 -18.83620483 14.46101807 -19.51620483 15.48101807 C-20.26620483 13.35601807 -20.26620483 13.35601807 -20.51620483 10.48101807 C-15.81227271 1.26131111 -9.53317604 -0.11260738 0 0 Z " fill="#F7F5F2" transform="translate(59.516204833984375,40.51898193359375)"/>
<path d="M0 0 C2.60333579 0.95455646 3.77267992 1.5822531 5.11693954 4.05260372 C6.26324825 7.87864528 6.27624784 11.51545144 6.25396729 15.47084045 C6.25708727 16.32166921 6.26020725 17.17249796 6.26342177 18.0491094 C6.27139617 20.89877696 6.2650803 23.74823126 6.25878906 26.59790039 C6.26149915 28.64138412 6.26506018 30.68486688 6.26940918 32.72834778 C6.27853274 38.2777544 6.27498918 43.82708672 6.26865101 49.37649465 C6.26359156 55.18023331 6.26828225 60.98396556 6.27142334 66.78770447 C6.27506285 76.53336735 6.27026396 86.27899992 6.26074219 96.0246582 C6.24985463 107.29854257 6.25338548 118.57235462 6.264395 129.84623724 C6.27346465 139.52021214 6.27475482 149.19416525 6.26951766 158.86814302 C6.26639659 164.64849212 6.26599247 170.4288072 6.27259064 176.20915413 C6.27835888 181.64198259 6.27437673 187.07471759 6.26280212 192.50753593 C6.26015288 194.50381693 6.26092512 196.50010577 6.26532745 198.49638367 C6.2707738 201.21641046 6.26395985 203.93613572 6.25396729 206.65614319 C6.25842873 207.45039847 6.26289017 208.24465375 6.26748681 209.06297737 C6.24043449 212.8464521 6.1938177 215.82960691 4 219 C1.07086369 221.78129005 -0.92342082 222.37703314 -4.92041016 222.38818359 C-6.38179916 222.40236832 -6.38179916 222.40236832 -7.87271118 222.4168396 C-9.44005508 222.40773056 -9.44005508 222.40773056 -11.0390625 222.3984375 C-12.6548671 222.40274277 -12.6548671 222.40274277 -14.30331421 222.40713501 C-16.57786587 222.40917504 -18.8524351 222.40364949 -21.12695312 222.39111328 C-24.61888545 222.37502817 -28.10966572 222.39098081 -31.6015625 222.41015625 C-33.8098984 222.40817442 -36.01823358 222.404332 -38.2265625 222.3984375 C-39.2755069 222.40451019 -40.32445129 222.41058289 -41.40518188 222.4168396 C-42.3731369 222.40738312 -43.34109192 222.39792664 -44.33837891 222.38818359 C-45.61933945 222.38460342 -45.61933945 222.38460342 -46.92617798 222.38095093 C-47.61053925 222.25523712 -48.29490051 222.12952332 -49 222 C-49.66 221.01 -50.32 220.02 -51 219 C-50.38247864 219.00888245 -49.76495728 219.01776489 -49.12872314 219.0269165 C-42.70505016 219.11536919 -36.28154998 219.17572569 -29.85742188 219.21972656 C-27.45956394 219.23984936 -25.06175512 219.26715059 -22.6640625 219.30175781 C-19.21862677 219.3502449 -15.77383948 219.37296241 -12.328125 219.390625 C-11.25508118 219.41127014 -10.18203735 219.43191528 -9.07647705 219.45318604 C-8.07574158 219.45348816 -7.0750061 219.45379028 -6.04394531 219.45410156 C-5.16458313 219.46298401 -4.28522095 219.47186646 -3.37921143 219.48101807 C-0.03641025 218.80518584 0.94673196 217.72547559 3 215 C3.39061596 212.05321367 3.53628409 209.48136061 3.50120544 206.53552246 C3.50673984 205.67329748 3.51227424 204.81107249 3.51797634 203.92271948 C3.53160946 201.02826618 3.51659924 198.1346712 3.50170898 195.24023438 C3.50549119 193.16733941 3.51099042 191.09444696 3.51808167 189.02156067 C3.53206631 183.38730406 3.52084527 177.75335179 3.50437045 172.11911201 C3.49054099 166.22861606 3.49697763 160.33813815 3.50050354 154.44763184 C3.50320732 144.55471886 3.48971553 134.6619271 3.46655273 124.76904297 C3.439942 113.32416416 3.43819531 101.87948805 3.4499411 90.43458891 C3.46071252 79.43441894 3.45453679 68.43432245 3.44038582 57.43415833 C3.43462051 52.7484209 3.43471299 48.06273714 3.43945122 43.3769989 C3.44421622 37.86123156 3.43413899 32.34568677 3.41249657 26.82996178 C3.40692203 24.80304909 3.40646948 22.77611505 3.41144943 20.74920082 C3.41738505 17.98737768 3.40493027 15.22623893 3.38768005 12.46447754 C3.3936901 11.65786729 3.39970014 10.85125705 3.40589231 10.02020407 C3.35723781 5.75141098 3.09299234 3.08293259 0 0 Z " fill="#FCFAF9" transform="translate(396,247)"/>
<path d="M0 0 C3 2 3 2 4 5 C4.09640059 6.7267759 4.13493768 8.457037 4.14044189 10.18649292 C4.14615204 11.26040283 4.15186218 12.33431274 4.15774536 13.44076538 C4.15886322 14.61901886 4.15998108 15.79727234 4.16113281 17.01123047 C4.16858017 18.87252594 4.16858017 18.87252594 4.17617798 20.77142334 C4.18828765 24.17644723 4.1957449 27.5814097 4.20018864 30.98644781 C4.20312067 33.11404657 4.20722571 35.24163995 4.21169281 37.36923599 C4.22536458 44.02688347 4.23503305 50.68451864 4.2388947 57.34217918 C4.24337616 65.02600536 4.26092932 72.70965371 4.2898953 80.39342582 C4.31151243 86.33407101 4.32159898 92.27466617 4.32293582 98.21535027 C4.32398375 101.76295886 4.32988879 105.31040021 4.34775543 108.85796738 C4.36729875 112.81536346 4.362947 116.77253726 4.35644531 120.72998047 C4.37026749 122.49128799 4.37026749 122.49128799 4.3843689 124.28817749 C4.37879974 125.36772705 4.37323059 126.44727661 4.36749268 127.55953979 C4.36895924 128.49495039 4.3704258 129.43036098 4.3719368 130.39411736 C3.92250532 133.54294717 2.88577835 135.45746169 1 138 C0.34 138 -0.32 138 -1 138 C-1 138.66 -1 139.32 -1 140 C-17.83 140 -34.66 140 -52 140 C-52.33 139.01 -52.66 138.02 -53 137 C-52.38247864 137.00888245 -51.76495728 137.01776489 -51.12872314 137.0269165 C-44.70505016 137.11536919 -38.28154998 137.17572569 -31.85742188 137.21972656 C-29.45956394 137.23984936 -27.06175512 137.26715059 -24.6640625 137.30175781 C-21.21862677 137.3502449 -17.77383948 137.37296241 -14.328125 137.390625 C-13.25508118 137.41127014 -12.18203735 137.43191528 -11.07647705 137.45318604 C-10.07574158 137.45348816 -9.0750061 137.45379028 -8.04394531 137.45410156 C-7.16458313 137.46298401 -6.28522095 137.47186646 -5.37921143 137.48101807 C-2.14054282 136.82623888 -1.07165983 135.53999604 1 133 C1.58884886 130.44168712 1.58884886 130.44168712 1.48774719 127.60386658 C1.49469101 126.50886337 1.50163483 125.41386017 1.50878906 124.28567505 C1.495979 123.08917328 1.48316895 121.89267151 1.4699707 120.65991211 C1.4721611 119.39618271 1.4743515 118.13245331 1.47660828 116.83042908 C1.48202604 113.36755454 1.46262134 109.90521534 1.43850732 106.44243693 C1.4172095 102.8190278 1.41780602 99.19562059 1.41581726 95.57215881 C1.40937043 89.48836047 1.38812556 83.40476324 1.35668945 77.32104492 C1.31638267 69.51029379 1.29899903 61.69967365 1.28938007 53.88883114 C1.28107982 47.17501409 1.26384344 40.46122482 1.24434257 33.74743199 C1.24029325 32.30603468 1.23655374 30.86463647 1.2331202 29.42323756 C1.22183302 24.68566351 1.20167055 19.94821711 1.17700195 15.21069336 C1.17431305 14.01216736 1.17162415 12.81364136 1.16885376 11.57879639 C1.16169846 10.48661301 1.15454315 9.39442963 1.14717102 8.26914978 C1.14289754 7.31844573 1.13862406 6.36774168 1.13422108 5.38822842 C1.0964954 2.85199207 1.0964954 2.85199207 0 0 Z " fill="#FBF9F5" transform="translate(317,329)"/>
<path d="M0 0 C4.01299727 3.32110119 5.97189342 6.96301738 7 12 C8.04629567 23.9126435 6.92087708 34.02313937 -0.375 43.875 C-6.6038307 51.24469022 -12.79026683 54.98567229 -22 58 C-23.32 58 -24.64 58 -26 58 C-25.98839844 59.04800781 -25.97679687 60.09601563 -25.96484375 61.17578125 C-25.95546345 62.55468572 -25.9463635 63.93359211 -25.9375 65.3125 C-25.92912109 66.00279297 -25.92074219 66.69308594 -25.91210938 67.40429688 C-25.89692094 70.5483025 -25.99806673 72.99420019 -27 76 C-32.12187612 76.83800329 -37.06321552 77.18266158 -42.25 77.1875 C-43.30960938 77.20586914 -43.30960938 77.20586914 -44.390625 77.22460938 C-48.14921497 77.23528719 -49.79359134 77.13760577 -53 75 C-52.505 74.01 -52.505 74.01 -52 73 C-44.41 73 -36.82 73 -29 73 C-28.67 67.72 -28.34 62.44 -28 57 C-24.5659375 55.7315625 -24.5659375 55.7315625 -21.0625 54.4375 C-10.20833661 50.17896793 -3.07702454 44.76995042 2 34 C4.07654355 28.96919861 4.36604987 24.48612632 4.375 19.125 C4.41173828 17.97837891 4.41173828 17.97837891 4.44921875 16.80859375 C4.47561054 11.62700659 3.45536233 8.11522001 0.86181641 3.62451172 C0 2 0 2 0 0 Z " fill="#F4F5F0" transform="translate(295,241)"/>
<path d="M0 0 C3 2 3 2 4 5 C4.10367129 6.94100945 4.1485634 8.88536613 4.16113281 10.82910156 C4.17074036 12.027547 4.1803479 13.22599243 4.19024658 14.46075439 C4.19449646 15.75761169 4.19874634 17.05446899 4.203125 18.390625 C4.20888055 19.73720297 4.21463823 21.08378093 4.22039795 22.43035889 C4.23089999 25.25484599 4.23674736 28.07930472 4.24023438 30.90380859 C4.24570717 34.50946519 4.26971198 38.1147419 4.29820633 41.72027969 C4.31690581 44.50338812 4.32204224 47.28640653 4.32357025 50.06957245 C4.32804061 52.04091269 4.3466542 54.01220462 4.36553955 55.98345947 C4.33162713 69.66837287 4.33162713 69.66837287 -1 75 C-3.07382202 75.27415466 -3.07382202 75.27415466 -5.66162109 75.30639648 C-7.11355362 75.33037758 -7.11355362 75.33037758 -8.59481812 75.35484314 C-10.16823471 75.36288719 -10.16823471 75.36288719 -11.7734375 75.37109375 C-13.38637192 75.38463646 -13.38637192 75.38463646 -15.03189087 75.39845276 C-17.30996913 75.4129805 -19.58808935 75.42184823 -21.86621094 75.42553711 C-25.3542305 75.43742919 -28.84047935 75.48658879 -32.328125 75.53710938 C-34.53905384 75.54657354 -36.74999358 75.5538086 -38.9609375 75.55859375 C-40.00583344 75.57812607 -41.05072937 75.59765839 -42.12728882 75.61778259 C-49.3925299 75.57245979 -49.3925299 75.57245979 -52.68994141 72.46508789 C-53.33842041 71.24486938 -53.33842041 71.24486938 -54 70 C-53.43704224 70.32433517 -52.87408447 70.64867035 -52.29406738 70.98283386 C-49.75579966 72.10827594 -48.05839568 72.25901648 -45.29492188 72.2746582 C-43.9032782 72.28895622 -43.9032782 72.28895622 -42.48352051 72.30354309 C-41.48864624 72.30263168 -40.49377197 72.30172028 -39.46875 72.30078125 C-38.44068237 72.30506638 -37.41261475 72.3093515 -36.35339355 72.31376648 C-34.18140397 72.31950534 -32.00939517 72.32001331 -29.83740234 72.31567383 C-26.51236272 72.31251176 -23.18821103 72.33598642 -19.86328125 72.36132812 C-17.75260529 72.36360092 -15.64192694 72.36430471 -13.53125 72.36328125 C-12.0389386 72.37709587 -12.0389386 72.37709587 -10.51647949 72.39118958 C-9.58871704 72.38496078 -8.66095459 72.37873199 -7.70507812 72.37231445 C-6.89107544 72.37294388 -6.07707275 72.3735733 -5.23840332 72.3742218 C-2.3128023 71.88511259 -1.02163061 71.18286332 1 69 C1.58886891 66.05924081 1.58886891 66.05924081 1.4699707 62.6484375 C1.47289627 61.33697754 1.47582184 60.02551758 1.47883606 58.67431641 C1.4617213 57.24120401 1.44402225 55.8080985 1.42578125 54.375 C1.4208573 52.90674278 1.41755845 51.43847929 1.41581726 49.97021484 C1.40817612 46.89335068 1.38761371 43.81695151 1.35668945 40.74023438 C1.31711454 36.79576465 1.29908058 32.85159751 1.28938007 28.9069519 C1.27940527 25.14626025 1.25951942 21.38564243 1.23828125 17.625 C1.2348855 16.90673035 1.23148975 16.18846069 1.2279911 15.44842529 C1.21641176 13.41609961 1.19689166 11.38382384 1.17700195 9.3515625 C1.16223564 7.61640381 1.16223564 7.61640381 1.14717102 5.84619141 C1.12299169 2.92428049 1.12299169 2.92428049 0 0 Z " fill="#F6F6F1" transform="translate(154,394)"/>
<path d="M0 0 C2.99061672 1.12148127 5.76469487 2.41301745 8.5625 3.9375 C20.81149975 9.94492604 33.64087399 9.47152184 46.953125 9.51171875 C49.06590807 9.52858972 51.17868126 9.54674316 53.29144287 9.56611633 C58.81505237 9.61335992 64.33862176 9.64333457 69.86236572 9.66955566 C75.51379311 9.69949134 81.16508262 9.74597661 86.81640625 9.79101562 C97.87753166 9.87675663 108.93868567 9.944231 120 10 C120 10.66 120 11.32 120 12 C108.35961006 12.04652464 96.71924257 12.08197091 85.07877827 12.10362434 C79.67252102 12.11402159 74.26632782 12.12810594 68.86010742 12.15087891 C63.63405422 12.17275293 58.40806227 12.18459908 53.18196678 12.18975449 C51.19707463 12.19342427 49.21218549 12.20058975 47.22731972 12.21146011 C11.70615725 12.39810048 11.70615725 12.39810048 0 1 C0 0.67 0 0.34 0 0 Z " fill="#F8FAF7" transform="translate(324,159)"/>
<path d="M0 0 C1.32 0.66 2.64 1.32 4 2 C4.2001464 15.47335554 4.38387402 28.94682502 4.54658794 42.42068768 C4.62265804 48.67700565 4.7044024 54.93314263 4.79907227 61.18920898 C4.89020961 67.22558536 4.9664969 73.26198283 5.03244972 79.29868507 C5.0602412 81.60285261 5.09340173 83.9069618 5.13199425 86.21097374 C5.18509781 89.4358258 5.21918248 92.66035657 5.2487793 95.88549805 C5.27898415 97.31724869 5.27898415 97.31724869 5.30979919 98.77792358 C5.33335301 103.6199753 5.32107669 107.14573491 2 111 C1.34 111 0.68 111 0 111 C0 111.66 0 112.32 0 113 C-16.5 113 -33 113 -50 113 C-50 112.34 -50 111.68 -50 111 C-49.11130219 110.99453156 -49.11130219 110.99453156 -48.20465088 110.98895264 C-42.04000577 110.94715293 -35.87610694 110.87782542 -29.71191406 110.79248047 C-27.41120873 110.76424896 -25.11040601 110.74304534 -22.80957031 110.72900391 C-19.50274721 110.70760514 -16.19709774 110.66096892 -12.890625 110.609375 C-11.86132874 110.60814636 -10.83203247 110.60691772 -9.77154541 110.60565186 C-8.81085144 110.58593323 -7.85015747 110.5662146 -6.86035156 110.54589844 C-6.01651917 110.53701599 -5.17268677 110.52813354 -4.30328369 110.51898193 C-0.95686515 109.76495811 0.07841393 108.86636504 2 106 C2.58261097 102.7486894 2.52553128 99.54144325 2.48583984 96.24609375 C2.48963654 95.25707062 2.49343323 94.26804749 2.49734497 93.24905396 C2.50475732 89.97821388 2.48335777 86.7082612 2.4609375 83.4375 C2.45855338 81.16593531 2.45764769 78.89436862 2.4581604 76.62280273 C2.4550312 71.86136537 2.43845635 67.10022887 2.41162109 62.33886719 C2.37764131 56.23206988 2.36999247 50.1256033 2.37151146 44.01872253 C2.37096788 39.32788937 2.36000267 34.63712866 2.34550858 29.94631958 C2.33913915 27.69443307 2.33520134 25.44253834 2.33372116 23.19064331 C2.32938977 20.04492172 2.31189187 16.89955229 2.29052734 13.75390625 C2.29143372 12.8207962 2.29234009 11.88768616 2.29327393 10.92630005 C2.28474396 10.06833832 2.27621399 9.21037659 2.26742554 8.32641602 C2.26407385 7.58311539 2.26072216 6.83981476 2.25726891 6.07398987 C1.96318267 3.70319475 1.17383895 2.06478164 0 0 Z " fill="#FEFDFB" transform="translate(235,356)"/>
<path d="M0 0 C0.33 0 0.66 0 1 0 C1.00146656 0.6602225 1.00293312 1.320445 1.00444412 2.00067425 C1.04149955 18.067085 1.1004972 34.13324278 1.18390274 50.19947338 C1.22370828 57.96900465 1.25609301 65.73843441 1.27099609 73.50805664 C1.28400484 80.28025617 1.31094936 87.05223249 1.35461307 93.82430631 C1.37724572 97.409962 1.39290963 100.99534221 1.39188385 104.58107567 C1.39099973 108.58455866 1.42122843 112.58722804 1.45410156 116.59057617 C1.4490712 117.77884506 1.44404083 118.96711395 1.43885803 120.19139099 C1.46243967 126.56848436 1.46243967 126.56848436 4.03411865 132.27558899 C4.6828595 132.84464462 5.33160034 133.41370026 6 134 C4.35 134 2.7 134 1 134 C-0.28311978 131.43376043 -0.12298145 129.6224527 -0.12025452 126.7482605 C-0.12162918 125.63484283 -0.12300385 124.52142517 -0.12442017 123.37426758 C-0.12082489 122.14716064 -0.11722961 120.92005371 -0.11352539 119.65576172 C-0.11367142 118.36799835 -0.11381744 117.08023499 -0.1139679 115.75344849 C-0.11425549 112.21647577 -0.10836483 108.67953678 -0.10139394 105.14257193 C-0.09515415 101.44833133 -0.0945561 97.75409002 -0.09336853 94.05984497 C-0.09025706 87.06170896 -0.08204615 80.06358852 -0.07201904 73.06545937 C-0.06085219 65.09942402 -0.05534601 57.13338794 -0.05032361 49.16734672 C-0.03986339 32.77822202 -0.02226751 16.389113 0 0 Z " fill="#478B5A" transform="translate(261,332)"/>
<path d="M0 0 C3.60401481 -0.08701039 7.20776012 -0.14039388 10.8125 -0.1875 C12.34874023 -0.22520508 12.34874023 -0.22520508 13.91601562 -0.26367188 C15.39038086 -0.27817383 15.39038086 -0.27817383 16.89453125 -0.29296875 C18.25348511 -0.31653442 18.25348511 -0.31653442 19.63989258 -0.34057617 C22 0 22 0 23.78710938 1.25390625 C25.26461452 3.38094265 25.42039092 4.655024 25.51171875 7.23046875 C25.56489258 8.43413086 25.56489258 8.43413086 25.61914062 9.66210938 C25.64169922 10.49548828 25.66425781 11.32886719 25.6875 12.1875 C25.73874023 13.4549707 25.73874023 13.4549707 25.79101562 14.74804688 C25.87341471 16.83156649 25.93838645 18.91576216 26 21 C24.02 20.67 22.04 20.34 20 20 C20 14.39 20 8.78 20 3 C18.02 3.020625 16.04 3.04125 14 3.0625 C8.89046425 3.06808419 4.04272794 2.79101615 -1 2 C-0.67 1.34 -0.34 0.68 0 0 Z " fill="#72A57F" transform="translate(244,151)"/>
<path d="M0 0 C0.33 0 0.66 0 1 0 C0.9538241 10.64354497 -3.63518903 19.43061095 -11 27 C-11.66 27 -12.32 27 -13 27 C-13.66 28.32 -14.32 29.64 -15 31 C-15.66 31 -16.32 31 -17 31 C-17 31.66 -17 32.32 -17 33 C-24.25702428 38.27783584 -30.94556685 41.36217733 -40 41 C-37.45390283 39.7137592 -34.89139009 38.46569544 -32.3203125 37.23046875 C-30.9217665 36.54970203 -29.52333216 35.86870585 -28.125 35.1875 C-27.43019531 34.85685547 -26.73539062 34.52621094 -26.01953125 34.18554688 C-12.85354505 27.72652728 -5.57688618 16.27758628 -0.828125 2.6328125 C-0.55484375 1.76398437 -0.2815625 0.89515625 0 0 Z " fill="#F5EDE8" transform="translate(483,515)"/>
<path d="M0 0 C3.56337746 4.04929257 4.77738458 8.4955765 5.25 13.8125 C5 16 5 16 3 18 C-1.10443671 18.51152612 -5.24232991 18.41679063 -9.375 18.4375 C-11.09976562 18.48680664 -11.09976562 18.48680664 -12.859375 18.53710938 C-21.30269834 18.59123324 -21.30269834 18.59123324 -24.7734375 15.6484375 C-26.07897586 12.8294725 -26.35054163 11.06723925 -26 8 C-23 11.75 -23 11.75 -23 14 C-15.41 14 -7.82 14 0 14 C0 12.35 0 10.7 0 9 C0.33 9 0.66 9 1 9 C1 10.98 1 12.96 1 15 C1.33 15 1.66 15 2 15 C1.34650367 7.44961578 1.34650367 7.44961578 0 0 Z " fill="#629B73" transform="translate(296,192)"/>
<path d="M0 0 C1.625 1.1015625 1.625 1.1015625 3.75 3.1015625 C0.75 3.1015625 0.75 3.1015625 -1.25 2.1015625 C-11.32562816 1.22968823 -11.32562816 1.22968823 -20.25 5.1015625 C-23.61261048 10.14547822 -23.76535909 14.13824774 -22.75 19.9765625 C-22.585 20.6778125 -22.42 21.3790625 -22.25 22.1015625 C-24.79610478 20.35111546 -26.07858354 18.90946796 -26.7265625 15.85546875 C-27.0052872 11.03646533 -26.62437784 7.88412146 -23.5 4.1015625 C-17.61338254 -2.08235887 -7.87596913 -3.14491823 0 0 Z " fill="#F5F7F1" transform="translate(262.25,192.8984375)"/>
<path d="M0 0 C4 0 4 0 6.4375 2.125 C8.10945262 4.00084928 9.73757186 5.91698124 11.3125 7.875 C13.90605324 11.06580683 16.93807421 13.59696083 20.0625 16.25390625 C22.69628837 18.62750182 24.82109912 21.20828325 27 24 C26.34 24.66 25.68 25.32 25 26 C21.43645168 22.46109324 17.87614125 18.91897325 14.31884766 15.3737793 C13.10717739 14.16715088 11.89461294 12.96141972 10.68115234 11.7565918 C8.9413478 10.02885937 7.20474035 8.29796998 5.46875 6.56640625 C4.92190552 6.02472305 4.37506104 5.48303986 3.81164551 4.92494202 C2.52197869 3.63546982 1.2580767 2.32031135 0 1 C0 0.67 0 0.34 0 0 Z " fill="#E67F79" transform="translate(393,66)"/>
<path d="M0 0 C4.01299727 3.32110119 5.97189342 6.96301738 7 12 C7.99239586 23.29896493 7.37478482 33.78680178 0 43 C-0.99 42.67 -1.98 42.34 -3 42 C-2.66226562 41.49210937 -2.32453125 40.98421875 -1.9765625 40.4609375 C-1.53054688 39.77257812 -1.08453125 39.08421875 -0.625 38.375 C-0.18414062 37.70210938 0.25671875 37.02921875 0.7109375 36.3359375 C3.85011982 30.64735862 4.36439121 25.47966424 4.375 19.125 C4.39949219 18.36058594 4.42398437 17.59617187 4.44921875 16.80859375 C4.47561054 11.62700659 3.45536233 8.11522001 0.86181641 3.62451172 C0 2 0 2 0 0 Z " fill="#EBEFE9" transform="translate(295,241)"/>
<path d="M0 0 C3.39589098 0.28299091 4.67208418 0.61919453 6.9375 3.25 C7.618125 4.1575 8.29875 5.065 9 6 C10.44057227 7.18447054 11.88207087 8.36801435 13.33984375 9.53125 C16.55288823 12.37384936 19.2480284 15.71880309 22 19 C21.01 19.33 20.02 19.66 19 20 C15.8293305 16.85817898 12.66414446 13.71089125 9.5 10.5625 C8.59378906 9.66466797 7.68757813 8.76683594 6.75390625 7.84179688 C5.89667969 6.98779297 5.03945313 6.13378906 4.15625 5.25390625 C3.36025391 4.46314697 2.56425781 3.6723877 1.74414062 2.85766602 C0 1 0 1 0 0 Z " fill="#E78781" transform="translate(348,21)"/>
<path d="M0 0 C0.33 0 0.66 0 1 0 C1.00364563 0.55266037 1.00729126 1.10532074 1.01104736 1.67472839 C1.05290241 7.43404993 1.1222685 13.19257677 1.20751953 18.95141602 C1.23572127 21.09977261 1.25693975 23.24823281 1.27099609 25.39672852 C1.29243623 28.48768119 1.33909311 31.57738922 1.390625 34.66796875 C1.39185364 35.62648239 1.39308228 36.58499603 1.39434814 37.57255554 C1.49120455 41.99601917 1.58225852 44.35522294 4.03808594 48.14575195 C5.0092334 49.06360474 5.0092334 49.06360474 6 50 C4.35 50 2.7 50 1 50 C-0.20887291 47.58225419 -0.12059343 46.06668936 -0.11352539 43.36669922 C-0.11344986 42.40585419 -0.11337433 41.44500916 -0.11329651 40.45504761 C-0.10813522 39.41542877 -0.10297394 38.37580994 -0.09765625 37.3046875 C-0.0962413 36.24210724 -0.09482635 35.17952698 -0.09336853 34.08474731 C-0.08775834 30.68146991 -0.07520409 27.27825762 -0.0625 23.875 C-0.05748631 21.57161553 -0.05292318 19.26823003 -0.04882812 16.96484375 C-0.0377856 11.30987351 -0.02103752 5.65494141 0 0 Z " fill="#468A59" transform="translate(261,416)"/>
<path d="M0 0 C3.56337746 4.04929257 4.77738458 8.4955765 5.25 13.8125 C5 16 5 16 3 18 C0.47802734 18.22705078 0.47802734 18.22705078 -2.6640625 18.1953125 C-3.78554688 18.18886719 -4.90703125 18.18242187 -6.0625 18.17578125 C-7.238125 18.15902344 -8.41375 18.14226562 -9.625 18.125 C-11.40003906 18.11146484 -11.40003906 18.11146484 -13.2109375 18.09765625 C-16.14082523 18.07402812 -19.0703134 18.04108514 -22 18 C-22 17.67 -22 17.34 -22 17 C-21.30849854 16.97494385 -20.61699707 16.9498877 -19.90454102 16.92407227 C-16.79032134 16.80847839 -13.67643211 16.68558758 -10.5625 16.5625 C-9.47388672 16.52318359 -8.38527344 16.48386719 -7.26367188 16.44335938 C-6.22919922 16.40146484 -5.19472656 16.35957031 -4.12890625 16.31640625 C-2.69140015 16.26141968 -2.69140015 16.26141968 -1.22485352 16.20532227 C0.97138925 16.24165576 0.97138925 16.24165576 2 15 C1.79510922 9.97086264 1.14375899 4.90182424 0 0 Z " fill="#F9FAF7" transform="translate(296,192)"/>
<path d="M0 0 C2.99061672 1.12148127 5.76469487 2.41301745 8.5625 3.9375 C13.75769112 6.59991081 19.33007736 7.75261702 25 9 C24.34 9.66 23.68 10.32 23 11 C14.11232118 10.43131854 6.46387474 6.99090829 0 1 C0 0.67 0 0.34 0 0 Z " fill="#F8EFEC" transform="translate(324,159)"/>
<path d="M0 0 C4 0 4 0 6.4375 2.125 C9.03031358 5.03401036 11.5402773 7.97805497 14 11 C13.34 11.66 12.68 12.32 12 13 C9.99698146 11.0238076 7.99750133 9.04425526 6 7.0625 C5.42765625 6.49853516 4.8553125 5.93457031 4.265625 5.35351562 C2.82474495 3.92121224 1.41012857 2.46258871 0 1 C0 0.67 0 0.34 0 0 Z " fill="#E5766F" transform="translate(393,66)"/>
<path d="M0 0 C0.94123548 3.05209446 0.97966237 5.29244103 0.5 8.4375 C0.05140991 11.87858349 0.01871186 14.62000752 1 18 C-1 16.625 -1 16.625 -3 14 C-3.70183707 9.55256928 -4.00947154 5.52840704 -1.47265625 1.6875 C-0.98667969 1.130625 -0.50070313 0.57375 0 0 Z " fill="#EFF1EB" transform="translate(239,197)"/>
<path d="M0 0 C0.33 0 0.66 0 1 0 C0.71311275 7.00004889 -0.50404312 11.91026866 -4 18 C-4.66 18 -5.32 18 -6 18 C-5.31583566 13.82423832 -3.98634991 10.11919593 -2.4375 6.1875 C-1.75494141 4.44533203 -1.75494141 4.44533203 -1.05859375 2.66796875 C-0.70925781 1.78753906 -0.35992187 0.90710938 0 0 Z " fill="#F8F4F0" transform="translate(483,515)"/>
<path d="M0 0 C2 2 2 2 2.1171875 4.09375 C1.99730469 5.28484375 1.99730469 5.28484375 1.875 6.5 C1.81054688 7.2940625 1.74609375 8.088125 1.6796875 8.90625 C1 11 1 11 -1.0546875 12.28125 C-1.69664062 12.5184375 -2.33859375 12.755625 -3 13 C-3 13.66 -3 14.32 -3 15 C-3.99 14.67 -4.98 14.34 -6 14 C-5.195625 13.175 -4.39125 12.35 -3.5625 11.5 C-0.44499414 7.81887726 -0.24498936 4.73646089 0 0 Z " fill="#F6F6F1" transform="translate(238,454)"/>
<path d="M0 0 C3.56943715 0.30595176 5.03014419 1.02424641 7.875 3.3125 C8.57625 4.199375 9.2775 5.08625 10 6 C9.6328125 8.16796875 9.6328125 8.16796875 9 10 C7.49702124 8.52386015 5.99768715 7.04400843 4.5 5.5625 C3.6646875 4.73878906 2.829375 3.91507813 1.96875 3.06640625 C0 1 0 1 0 0 Z " fill="#E58078" transform="translate(370,43)"/>
<path d="M0 0 C4.53030991 0.53297764 7.45025069 2.16020055 11 5 C12.375 7.75 12.375 7.75 13 10 C10.2739863 8.44227788 7.81982739 6.85414598 5.375 4.875 C3.06477194 2.83289928 3.06477194 2.83289928 0 2 C0 1.34 0 0.68 0 0 Z " fill="#669D75" transform="translate(282,231)"/>
<path d="M0 0 C0.66 0.33 1.32 0.66 2 1 C1.74445946 2.46109063 1.46999628 3.91888096 1.1875 5.375 C1.03667969 6.18710937 0.88585937 6.99921875 0.73046875 7.8359375 C0 10 0 10 -3 12 C-3.66 11.34 -4.32 10.68 -5 10 C-4.360625 9.649375 -3.72125 9.29875 -3.0625 8.9375 C-0.17836168 6.22815794 -0.2899178 3.84141089 0 0 Z " fill="#F0F3ED" transform="translate(156,456)"/>
<path d="M0 0 C4.75 0.75 4.75 0.75 7 3 C6.67 4.32 6.34 5.64 6 7 C4.02 4.69 2.04 2.38 0 0 Z " fill="#E57B74" transform="translate(348,21)"/>
<path d="M0 0 C0.99 0.33 1.98 0.66 3 1 C2.67 1.99 2.34 2.98 2 4 C2.99 4.33 3.98 4.66 5 5 C5.33 6.98 5.66 8.96 6 11 C3.02753198 8.45217026 1.58464712 5.54659117 0 2 C0 1.34 0 0.68 0 0 Z " fill="#E89791" transform="translate(310,140)"/>
<path d="M0 0 C3.57104439 1.87949705 5.54744301 3.17053157 7 7 C3.76509224 6.44225728 2.02144994 5.62788492 0 3 C0 2.01 0 1.02 0 0 Z " fill="#E88D86" transform="translate(337,8)"/>
<path d="M0 0 C0.66 0.33 1.32 0.66 2 1 C1.34 2.32 0.68 3.64 0 5 C-0.66 5 -1.32 5 -2 5 C-2 5.66 -2 6.32 -2 7 C-3.32 6.67 -4.64 6.34 -6 6 C-5.195625 5.38125 -4.39125 4.7625 -3.5625 4.125 C-0.96125481 2.25835959 -0.96125481 2.25835959 0 0 Z " fill="#F5F6EF" transform="translate(318,462)"/>
<path d="M0 0 C0.99 1.485 0.99 1.485 2 3 C3.32381517 4.67423683 4.65576661 6.34211215 6 8 C4.35 8 2.7 8 1 8 C-0.35439668 5.29120665 -0.06501451 2.99066732 0 0 Z " fill="#679C74" transform="translate(261,458)"/>
<path d="M0 0 C-1.39332574 3.36720387 -2.9789286 4.9859524 -6 7 C-5.37162381 3.35541809 -4.14650034 0 0 0 Z " fill="#FAF8F4" transform="translate(294,284)"/>
</svg>
